<svg xmlns="http://www.w3.org/2000/svg" version="1.1" xmlns:xlink="http://www.w3.org/1999/xlink" xmlns:svgjs="http://svgjs.com/svgjs" width="1600" height="560" preserveAspectRatio="none" viewBox="0 0 1600 560"><g mask="url(&quot;#SvgjsMask2725&quot;)" fill="none"><rect width="1600" height="560" x="0" y="0" fill="url(#SvgjsRadialGradient2726)"></rect><path d="M541.12 651.27C655.6 648.11 632.47 484.89 966.15 480.4 1299.83 475.91 1596.46 258.27 1816.22 256.4" stroke="rgba(51,121,194,0.58)" stroke-width="2"></path><path d="M662.77 582.76C779.75 576.3 745.24 372.93 1077.86 365.22 1410.49 357.51 1691.17 115.98 1908.05 113.22" stroke="rgba(51,121,194,0.58)" stroke-width="2"></path><path d="M554.9 597.31C736.72 562.73 820.84 104.57 1105.28 102.2 1389.72 99.83 1508.68 306.01 1655.66 309.4" stroke="rgba(51,121,194,0.58)" stroke-width="2"></path><path d="M1016.98 610.08C1132.67 556.02 1082.33 186.44 1300.49 185.19 1518.65 183.94 1714.64 410.49 1867.51 414.79" stroke="rgba(51,121,194,0.58)" stroke-width="2"></path><path d="M733.77 647C906.24 621.96 1003.74 215.23 1280.65 214.68 1557.56 214.13 1676.53 465.94 1827.53 472.28" stroke="rgba(51,121,194,0.58)" stroke-width="2"></path></g><defs><mask id="SvgjsMask2725"><rect width="1600" height="560" fill="#ffffff"></rect></mask><radialGradient cx="50%" cy="50%" r="847.58" gradientUnits="userSpaceOnUse" id="SvgjsRadialGradient2726"><stop stop-color="rgba(44, 88, 126, 1)" offset="0.08"></stop><stop stop-color="rgba(7, 24, 41, 1)" offset="1"></stop><stop stop-color="rgba(78, 84, 91, 1)" offset="1"></stop></radialGradient></defs></svg>